<?xml version="1.0"?>
<svg width="100" height="100" xmlns="http://www.w3.org/2000/svg" xmlns:svg="http://www.w3.org/2000/svg">
 <!-- Created with SVG-edit - https://github.com/SVG-Edit/svgedit-->
 <g class="layer">
  <title>Layer 1</title>
  <line fill="none" id="svg_7" stroke="#000000" stroke-width="5" transform="matrix(1 0 0 1 0 0)" x1="12.63" x2="37.88" y1="21.5" y2="12"/>
  <line fill="none" id="svg_8" stroke="#000000" stroke-width="5" x1="13.13" x2="13.13" y1="19.75" y2="75.25"/>
  <line fill="none" id="svg_10" stroke="#000000" stroke-width="5" transform="matrix(1 0 0 1 0 0)" x1="38.88" x2="38.88" y1="10" y2="91.4"/>
  <line fill="none" id="svg_11" stroke="#000000" stroke-width="5" transform="matrix(1 0 0 1 0 0)" x1="13.13" x2="39.12" y1="72" y2="90"/>
  <line fill="none" id="svg_12" stroke="#000000" stroke-width="5" transform="matrix(1 0 0 1 0 0)" x1="38.62" x2="87.13" y1="11.25" y2="20.75"/>
  <line fill="none" id="svg_13" stroke="#000000" stroke-width="5" x1="84.88" x2="84.88" y1="20.5" y2="77.53"/>
  <line fill="none" id="svg_14" stroke="#000000" stroke-width="5" x1="39.12" x2="86.63" y1="89.5" y2="74.5"/>
  <line fill="none" id="svg_1" stroke="#000000" stroke-width="5" x1="83.88" x2="39.88" y1="20.25" y2="89"/>
  <line fill="none" id="svg_2" stroke="#000000" stroke-width="5" x1="37.88" x2="84.88" y1="12.25" y2="74.25"/>
 </g>
</svg>