<?xml version="1.0"?>
<svg width="100" height="100" xmlns="http://www.w3.org/2000/svg" xmlns:svg="http://www.w3.org/2000/svg">
 <!-- Created with SVG-edit - https://github.com/SVG-Edit/svgedit-->
 <g class="layer">
  <title>Layer 1</title>
  <ellipse cx="50.25" cy="50" fill="#000000" fill-opacity="0" id="svg_1" rx="40.37" ry="45" stroke="#000000" stroke-width="5" transform="matrix(1 0 0 1 0 0)"/>
  <line fill="none" fill-opacity="0" id="svg_4" stroke="#000000" stroke-width="5" transform="matrix(1 0 0 1 0 0)" x1="26.12" x2="26.12" y1="44.48" y2="60.27"/>
  <path d="m23.13,69c0,0.53 0.14,1.36 0.5,2.16c0.35,0.8 0.78,1.56 1.31,2.19c0.51,0.61 1.09,1.14 1.7,1.71c0.58,0.54 1.14,1.14 1.83,1.54c0.62,0.36 1.35,0.76 2.04,1.05c0.73,0.3 1.58,0.27 2.27,0.37c0.8,0.13 1.52,0.34 2.28,0.14c0.74,-0.2 1.51,-0.42 2.15,-0.91c0.62,-0.46 1.23,-0.99 1.83,-1.51c0.6,-0.52 1.24,-0.96 1.81,-1.59c0.55,-0.61 1.1,-1.2 1.6,-1.86l0.39,-0.75l0.4,-0.67" fill="none" fill-opacity="0" id="svg_6" stroke="#000000" stroke-width="5"/>
  <line fill="none" fill-opacity="0" id="svg_10" stroke="#000000" stroke-width="5" x1="45.63" x2="54.38" y1="4.75" y2="53.75"/>
  <line fill="none" fill-opacity="0" id="svg_11" stroke="#000000" stroke-width="5" x1="53.88" x2="89.13" y1="50" y2="62.75"/>
 </g>
</svg>