<?xml version="1.0"?>
<svg width="100" height="100" xmlns="http://www.w3.org/2000/svg" xmlns:svg="http://www.w3.org/2000/svg">
 <!-- Created with SVG-edit - https://github.com/SVG-Edit/svgedit-->
 <g class="layer">
  <title>Layer 1</title>
  <ellipse cx="50.25" cy="50" fill="#000000" fill-opacity="0" id="svg_1" rx="40.37" ry="45" stroke="#000000" stroke-width="5" transform="matrix(1 0 0 1 0 0)"/>
  <line fill="none" fill-opacity="0" id="svg_2" stroke="#000000" stroke-width="5" x1="36.38" x2="36.38" y1="43.5" y2="59.3"/>
  <line fill="none" fill-opacity="0" id="svg_4" stroke="#000000" stroke-width="5" x1="63.62" x2="63.62" y1="43.73" y2="59.52"/>
  <path d="m36.13,70c0,0.53 0.22,1.36 0.76,2.16c0.54,0.8 1.19,1.56 1.99,2.19c0.77,0.61 1.66,1.14 2.59,1.71c0.89,0.54 1.74,1.14 2.79,1.54c0.94,0.36 2.06,0.76 3.11,1.05c1.11,0.3 2.41,0.27 3.45,0.37c1.22,0.13 2.32,0.34 3.47,0.14c1.12,-0.2 2.3,-0.42 3.28,-0.91c0.94,-0.46 1.87,-0.99 2.78,-1.51c0.91,-0.52 1.89,-0.96 2.75,-1.59c0.83,-0.61 1.67,-1.2 2.43,-1.86l0.6,-0.75l0.61,-0.67" fill="none" fill-opacity="0" id="svg_6" stroke="#000000" stroke-width="5"/>
 </g>
</svg>