<?xml version="1.0"?>
<svg width="100" height="100" xmlns="http://www.w3.org/2000/svg" xmlns:svg="http://www.w3.org/2000/svg">
 <!-- Created with SVG-edit - https://github.com/SVG-Edit/svgedit-->
 <g class="layer">
  <title>Layer 1</title>
  <ellipse cx="38.63" cy="49.5" fill="none" id="svg_2" rx="34.25" ry="38.5" stroke="#000000" stroke-width="5"/>
  <rect fill="none" height="58.5" id="svg_3" stroke="#000000" stroke-width="5" width="34.75" x="79.63" y="28.75"/>
  <line fill="none" id="svg_4" stroke="#000000" stroke-width="5" x1="23.13" x2="43.92" y1="39.25" y2="39.25"/>
  <line fill="none" id="svg_7" stroke="#000000" stroke-width="5" x1="22.72" x2="43.52" y1="61.63" y2="61.63"/>
  <path d="m54.38,32.5c0.79,0.18 1.53,0.62 2.04,1.3c0.56,0.74 1,1.49 1.51,2.3c0.45,0.72 0.98,1.44 1.3,2.22c0.36,0.89 0.62,1.69 1.01,2.51c0.36,0.76 0.64,1.58 0.64,2.5c0,0.85 0,1.72 0,2.56c0,0.85 0,1.79 0,2.71c0,0.94 0,1.81 0,2.69c0,0.86 -0.2,1.73 -0.43,2.58c-0.23,0.84 -0.3,1.69 -0.47,2.48c-0.2,0.88 -0.6,1.73 -0.85,2.56c-0.25,0.84 -0.66,1.64 -1.13,2.33c-0.49,0.74 -0.81,1.58 -1.39,2.25c-0.58,0.67 -1.09,1.26 -1.62,1.91l-0.51,0.76l-0.39,0.78l-0.46,0.7" fill="none" id="svg_8" stroke="#000000" stroke-width="5"/>
 </g>
</svg>